# AST/ASF file generated using VICON BodyLanguage
# -----------------------------------------------
:version 1.10
:name VICON
:units
  mass 1.0
  length 0.45
  angle deg
:documentation
   .ast/.asf automatically generated from VICON data using
   VICON BodyBuilder and BodyLanguage model FoxedUp or BRILLIANT.MOD
:root
   order TX TY TZ RX RY RZ
   axis XYZ
   position 0 0 0  
   orientation 0 0 0 
:bonedata
  begin
     id 1 
     name lhipjoint
     direction 0.729592 -0.560644 0.39163 
     length 2.81907 
     axis 0 0 0  XYZ
  end
  begin
     id 2 
     name lfemur
     direction 0.34202 -0.939693 0  
     length 5.92797  
     axis 0 0 20  XYZ
    dof rx ry rz
    limits (-160.0 20.0)
           (-70.0 70.0)
           (-60.0 70.0)
  end
  begin
     id 3 
     name ltibia
     direction 0.34202 -0.939693 0   
     length 7.88118   
     axis 0 0 20   XYZ
    dof rx
    limits (-10.0 170.0)
  end
  begin
     id 4 
     name lfoot
     direction 0.0476411 -0.130893 0.990251   
     length 1.97348   
     axis -90 7.62852e-016 20   XYZ
    dof rx rz
    limits (-45.0 90.0)
           (-70.0 20.0)
  end
  begin
     id 5 
     name ltoes
     direction 1.53635e-011 -4.21786e-011 1   
     length 0.999366   
     axis -90 7.62852e-016 20   XYZ
    dof rx
    limits (-90.0 20.0)
  end
  begin
     id 6 
     name rhipjoint
     direction -0.702143 -0.583724 0.407752   
     length 2.70761  
     axis 0 0 0  XYZ 
  end
  begin
     id 7 
     name rfemur
     direction -0.34202 -0.939693 0   
     length 5.98021   
     axis 0 0 -20   XYZ
    dof rx ry rz
    limits (-160.0 20.0)
           (-70.0 70.0)
           (-70.0 60.0)
  end
  begin
     id 8 
     name rtibia
     direction -0.34202 -0.939693 0   
     length 7.66627   
     axis 0 0 -20   XYZ
    dof rx
    limits (-10.0 170.0)
 end
 begin
     id 9 
     name rfoot
     direction -0.0516088 -0.141794 0.98855   
     length 2.01387  
     axis -90 -7.62852e-016 -20   XYZ
    dof rx rz
    limits (-45.0 90.0)
           (-20.0 70.0)
  end
  begin
     id 10 
     name rtoes
     direction -1.53568e-011 -4.21939e-011 1   
     length 1.01862   
     axis -90 -7.62852e-016 -20   XYZ
    dof rx
    limits (-90.0 20.0)
  end
  begin
     id 11 
     name lowerback
     direction -0.0436953 0.98817 -0.147007   
     length 1.83615   
     axis 0 0 0   XYZ
    dof rx ry rz
    limits (-20.0 45.0)
           (-30.0 30.0)
           (-30.0 30.0)
  end
  begin
     id 12 
     name upperback
     direction 0.0239184 0.998197 0.0550483   
     length 1.80285   
     axis 0 0 0   XYZ
    dof rx ry rz
    limits (-20.0 45.0)
           (-30.0 30.0)
           (-30.0 30.0)
  end
  begin
     id 13 
     name thorax
     direction 0.0460768 0.990713 0.127927   
     length 1.87059   
     axis 0 0 0   XYZ
    dof rx ry rz
    limits (-20.0 45.0)
           (-30.0 30.0)
           (-30.0 30.0)
  end
  begin
     id 14 
     name lowerneck
     direction -0.0234223 0.997727 0.0631897   
     length 1.79511   
     axis 0 0 0   XYZ
    dof rx ry rz
    limits (-20.0 45.0)
           (-30.0 30.0)
           (-30.0 30.0)
  end
  begin
     id 15 
     name upperneck
     direction 0.0345303 0.984409 -0.172474   
     length 1.80359   
     axis 0 0 0   XYZ
    dof rx ry rz
    limits (-20.0 45.0)
           (-30.0 30.0)
           (-30.0 30.0)
  end
  begin
     id 16
     name head
     direction 0.00973222 0.9978 -0.0655778  
     length 1.81938  
     axis 0 0 0   XYZ
    dof rx ry rz
    limits (-20.0 45.0)
           (-30.0 30.0)
           (-30.0 30.0)
  end
  begin
     id 17 
     name lclavicle
     direction 0.971201 0.212597 -0.10757  
     length 3.74698  
     axis 0 0 0   XYZ
    dof ry rz
    limits (-20.0 10.0)
           (0.0 20.0)
  end
  begin
     id 18 
     name lhumerus
     direction 1 -4.4896e-011 1.42684e-027   
     length 4.83799   
     axis 180 -30 -90   XYZ
    dof rx ry rz
    limits (-60.0 90.0)
           (-90.0 90.0)
           (-90.0 90.0)
  end
  begin
     id 19
     name lradius
     direction 1 -4.48978e-011 1.53407e-026   
     length 2.68259   
     axis 180 -30 -90   XYZ
    dof rx
    limits (-10.0 170.0)
  end
  begin
     id 20
     name lwrist
     direction 1 -4.48982e-011 3.34345e-026   
     length 1.34129   
     axis -2.22354e-014 90 90   XYZ
    dof ry
    limits (-180.0 0.0)
 end
  begin
     id 21 
     name lhand
     direction 1 -4.48992e-011 6.6869e-026   
     length 0.724765   
     axis -4.26681e-014 90 90   XYZ
    dof rx rz
    limits (-90.0 90.0)
           (-45.0 45.0)
  end
  begin
     id 22 
     name lfingers
     direction 1 -4.48965e-011 1.33738e-025   
     length 0.584325   
     axis -8.53362e-014 90 90   XYZ
    dof rx
    limits (0.0 90.0)
  end
  begin
     id 23
     name lthumb
     direction 0.707107 -6.34915e-011 0.707107   
     length 0.838977   
     axis -90 45 2.85299e-015   XYZ
    dof rx rz
    limits (-45.0 45.0)
           (-45.0 45.0)
  end
  begin
     id 24 
     name rclavicle
     direction -0.987829 0.146084 -0.0534135   
     length 3.83678  
     axis 0 0 0   XYZ 
    dof ry rz
    limits (-10.0 20.0)
           (-20.0 0.0)
  end
  begin
     id 25 
     name rhumerus
     direction -1 -4.48963e-011 -3.4086e-018  
     length 4.61639   
     axis 180 30 90   XYZ
    dof rx ry rz
    limits (-90.0 60.0)
           (-90.0 90.0)
           (-90.0 90.0)
  end
  begin
     id 26 
     name rradius
     direction -1 -4.48983e-011 1.36226e-026   
     length 2.86915   
     axis 180 30 90   XYZ
    dof rx
    limits (-10.0 170.0)
  end
  begin
     id 27 
     name rwrist
     direction -1 -4.48927e-011 3.34345e-026   
     length 1.43458   
     axis -2.22354e-014 -90 -90   XYZ
    dof ry
    limits (-180.0 0.0)
  end
  begin
     id 28
     name rhand
     direction -1 -4.49071e-011 6.6869e-026   
     length 0.726007   
     axis -4.26681e-014 -90 -90   XYZ
    dof rx rz
    limits (-90.0 90.0)
           (-45.0 45.0)
  end
  begin
     id 29
     name rfingers
     direction -1 -4.48886e-011 1.33738e-025   
     length 0.585326   
     axis -8.53362e-014 -90 -90   XYZ
    dof rx
    limits (0.0 90.0)
  end
  begin
     id 30
     name rthumb
     direction -0.707107 -6.34932e-011 0.707107   
     length 0.840414   
     axis -90 -45 -2.85299e-015   XYZ
    dof rx rz
    limits (-45.0 45.0)
           (-45.0 45.0)
  end
:hierarchy
  begin
    root lhipjoint rhipjoint lowerback
    lhipjoint lfemur
    lfemur ltibia
    ltibia lfoot
    lfoot ltoes
    rhipjoint rfemur
    rfemur rtibia
    rtibia rfoot
    rfoot rtoes
    lowerback upperback
    upperback thorax
    thorax lowerneck lclavicle rclavicle
    lowerneck upperneck
    upperneck head
    lclavicle lhumerus
    lhumerus lradius
    lradius lwrist
    lwrist lhand lthumb
    lhand lfingers
    rclavicle rhumerus
    rhumerus rradius
    rradius rwrist
    rwrist rhand rthumb
    rhand rfingers
  end

#!OML:ASF F:\VICON\USERDATA\INSTALL\rory3\rory3.ASF
:FULLY-SPECIFIED
:DEGREES
80
root -1.45543 16.1309 -19.877 3.26175 -1.43908 5.89209
lowerback 12.2197 -0.237999 -9.18944
upperback -4.74012 -1.7804 1.11651
thorax -11.8508 -0.0836936 6.83369
lowerneck -9.00236 -3.87929 -4.0908
upperneck 16.9146 -5.19161 2.88999
head 6.82462 -2.5266 1.15577
rclavicle -4.75841e-015 9.54166e-015
rhumerus -42.7515 -0.547392 -84.4403
rradius 25.9926
rwrist 8.27464
rhand -8.80485 20.2766
rfingers 7.12502
rthumb 17.1343 -8.98789
lclavicle -4.75841e-015 9.54166e-015
lhumerus -28.4382 -3.84499 90.6156
lradius 27.5641
lwrist 3.04014
lhand -5.44353 19.9552
lfingers 7.12502
lthumb 20.3672 48.9072
rfemur -35.2363 22.2988 4.57684
rtibia 23.2545
rfoot -13.7809 -14.6745
rtoes 35.9015
lfemur 17.5565 -13.4797 -32.9376
ltibia 5.725e-014
lfoot -12.7361 9.08792
ltoes 19.1475
81
root -1.47493 16.1095 -19.7373 3.17265 -1.28663 6.33309
lowerback 11.8892 -0.273668 -9.46653
upperback -4.6737 -1.85583 0.945294
thorax -11.5628 -0.126783 6.80051
lowerneck -8.861 -3.91533 -4.06698
upperneck 16.9442 -5.24513 2.85548
head 6.80971 -2.55528 1.13858
rclavicle 1.3828e-014 -7.95139e-016
rhumerus -42.735 -0.880102 -84.2838
rradius 25.6716
rwrist 8.65476
rhand -7.66626 19.2519
rfingers 7.12502
rthumb 18.2299 -9.9138
lclavicle 1.3828e-014 -7.95139e-016
lhumerus -28.3224 -4.10884 90.6982
lradius 27.3589
lwrist 3.31316
lhand -5.30902 20.0107
lfingers 7.12502
lthumb 20.4965 48.9487
rfemur -34.7719 21.0214 4.85168
rtibia 23.727
rfoot -12.5713 -14.0419
rtoes 36.58
lfemur 18.1959 -13.371 -33.4592
ltibia -3.49861e-014
lfoot -12.8231 8.86083
ltoes 18.3957
82
root -1.51469 16.0989 -19.62 3.12326 -1.2714 6.16068
lowerback 12.0201 -0.2421 -9.5028
upperback -4.71174 -1.8249 1.04445
thorax -11.6885 -0.0952812 6.93228
lowerneck -9.04197 -3.89498 -4.05901
upperneck 17.1741 -5.20525 2.78388
head 6.91197 -2.53909 1.11303
rclavicle -1.72694e-014 -1.27222e-014
rhumerus -42.7746 -0.971508 -84.1442
rradius 25.4029
rwrist 9.21397
rhand -7.02939 18.2097
rfingers 7.12502
rthumb 18.8426 -10.8977
lclavicle -1.72694e-014 -1.27222e-014
lhumerus -28.4443 -3.69467 90.7386
lradius 27.2243
lwrist 2.99861
lhand -5.67409 19.4133
lfingers 7.12502
lthumb 20.1456 48.3887
rfemur -34.5648 20.721 5.5243
rtibia 24.2352
rfoot -11.4981 -14.3358
rtoes 36.4491
lfemur 18.7364 -13.1435 -33.1697
ltibia -5.08889e-014
lfoot -12.8109 8.61452
ltoes 18.2855
83
root -1.55261 16.0959 -19.505 3.09026 -1.35392 5.75553
lowerback 12.2029 -0.0969392 -9.24242
upperback -4.70162 -1.5954 1.12022
thorax -11.8313 0.00596484 6.8274
lowerneck -9.52672 -3.86807 -3.92469
upperneck 17.5918 -5.2004 2.87232
head 7.13082 -2.51384 1.10835
rclavicle 9.83984e-015 -1.03368e-014
rhumerus -42.7768 -1.58813 -83.7971
rradius 25.2358
rwrist 10.14
rhand -6.58375 17.8754
rfingers 7.12502
rthumb 19.2711 -11.1897
lclavicle 9.83984e-015 -1.03368e-014
lhumerus -28.4677 -3.36168 90.7031
lradius 27.2078
lwrist 2.31403
lhand -6.05577 18.9522
lfingers 7.12502
lthumb 19.7787 47.9658
rfemur -34.4063 20.7585 6.33288
rtibia 24.6583
rfoot -10.5993 -14.8059
rtoes 36.8339
lfemur 19.2208 -12.8195 -32.6144
ltibia -3.18055e-014
lfoot -12.6517 8.47582
ltoes 17.0464
84
root -1.58178 16.0878 -19.3794 3.00008 -1.35176 5.52098
lowerback 12.1877 -0.0227386 -8.91987
upperback -4.61074 -1.44028 1.06171
thorax -11.7489 0.0439745 6.54182
lowerneck -9.96864 -3.81027 -3.70963
upperneck 18.044 -5.18814 3.03948
head 7.35406 -2.47203 1.11779
rclavicle -7.7526e-015 1.27222e-014
rhumerus -42.6353 -2.29562 -83.5846
rradius 24.9285
rwrist 10.7794
rhand -6.0931 17.6305
rfingers 7.12502
rthumb 19.7429 -11.3869
lclavicle -7.7526e-015 1.27222e-014
lhumerus -28.2644 -3.22465 90.5673
lradius 26.9923
lwrist 1.8686
lhand -6.17991 18.5465
lfingers 7.12502
lthumb 19.6594 47.5725
rfemur -34.1369 20.5322 6.98333
rtibia 25.0169
rfoot -9.92763 -14.819
rtoes 38.3957
lfemur 19.7943 -12.5648 -32.2937
ltibia 1.27222e-014
lfoot -12.5112 8.27545
ltoes 16.1222
85
root -1.61509 16.0822 -19.2575 2.93758 -1.1233 5.43147
lowerback 12.2273 -0.101307 -8.7998
upperback -4.60741 -1.53002 1.05397
thorax -11.753 -0.0080479 6.48492
lowerneck -9.87133 -3.8033 -3.57072
upperneck 17.9677 -5.18187 2.92603
head 7.30474 -2.47132 1.06101
rclavicle -6.54747e-015 -2.38542e-014
rhumerus -42.5648 -2.58007 -83.4789
rradius 24.5476
rwrist 11.163
rhand -6.05554 17.4779
rfingers 7.12502
rthumb 19.779 -11.5358
lclavicle -6.54747e-015 -2.38542e-014
lhumerus -28.3086 -3.07958 90.5312
lradius 26.8845
lwrist 1.97588
lhand -6.20796 18.3381
lfingers 7.12502
lthumb 19.6324 47.3668
rfemur -33.8957 20.0439 7.51043
rtibia 25.5
rfoot -9.24047 -14.7724
rtoes 39.2356
lfemur 20.2823 -12.5485 -32.1017
ltibia 1.27222e-014
lfoot -12.2041 8.05055
ltoes 15.3022
86
root -1.64926 16.0844 -19.1379 2.90103 -0.8678 5.24945
lowerback 12.3077 -0.230256 -8.64592
upperback -4.66064 -1.67738 1.14543
thorax -11.8346 -0.0788228 6.53507
lowerneck -9.59193 -3.77869 -3.67001
upperneck 17.6125 -5.1325 2.94497
head 7.14123 -2.45744 1.09521
rclavicle -1.51573e-015 3.18055e-015
rhumerus -42.5715 -2.54126 -83.3812
rradius 24.1949
rwrist 11.4265
rhand -5.92883 17.416
rfingers 7.12502
rthumb 19.9008 -11.5851
lclavicle -1.51573e-015 3.18055e-015
lhumerus -28.5369 -2.43195 90.4015
lradius 26.8516
lwrist 1.76047
lhand -6.00894 18.3518
lfingers 7.12502
lthumb 19.8238 47.3608
rfemur -33.6282 19.321 8.24105
rtibia 26.1164
rfoot -8.24306 -14.5919
rtoes 38.72
lfemur 20.789 -12.5617 -31.8064
ltibia 8.90555e-014
lfoot -11.83 7.87209
ltoes 13.9475
87
root -1.6772 16.0872 -19.0054 2.84008 -0.769861 4.96175
lowerback 12.195 -0.344496 -8.34437
upperback -4.64198 -1.75575 1.25225
thorax -11.7307 -0.140492 6.49389
lowerneck -9.72899 -3.69952 -3.80978
upperneck 17.6332 -5.01536 3.04925
head 7.17445 -2.39981 1.1603
rclavicle 7.33018e-015 1.59028e-014
rhumerus -42.5017 -2.35384 -83.4241
rradius 23.8271
rwrist 11.2173
rhand -6.01771 17.1129
rfingers 7.12502
rthumb 19.8153 -11.897
lclavicle 7.33018e-015 1.59028e-014
lhumerus -28.7443 -1.87448 90.2994
lradius 26.7846
lwrist 1.60488
lhand -6.10405 18.2509
lfingers 7.12502
lthumb 19.7323 47.2694
rfemur -33.3101 18.5308 9.15683
rtibia 26.7981
rfoot -7.34033 -14.1153
rtoes 37.8414
lfemur 21.4052 -12.4044 -31.4413
ltibia -6.36111e-015
lfoot -11.5359 7.69986
ltoes 12.8203
88
root -1.7103 16.0847 -18.8718 2.74701 -0.77426 4.81592
lowerback 12.2436 -0.406802 -8.36952
upperback -4.73417 -1.83605 1.40271
thorax -11.8472 -0.159632 6.69839
lowerneck -9.44526 -3.61575 -3.8768
upperneck 17.6416 -4.86346 2.85666
head 7.11837 -2.35156 1.12834
rclavicle -1.22998e-014 9.54166e-015
rhumerus -42.7221 -1.99317 -83.402
rradius 23.4923
rwrist 10.7132
rhand -6.6029 17.1188
rfingers 7.12502
rthumb 19.2527 -11.9482
lclavicle -1.22998e-014 9.54166e-015
lhumerus -29.134 -1.5398 90.4004
lradius 26.6306
lwrist 1.74698
lhand -6.73047 17.9861
lfingers 7.12502
lthumb 19.13 47.0653
rfemur -33.0767 18.1037 9.81315
rtibia 27.523
rfoot -7.00729 -13.6699
rtoes 37.5115
lfemur 21.9772 -12.1503 -31.2202
ltibia 9.54166e-015
lfoot -10.9385 7.54057
ltoes 13.0611
89
root -1.7484 16.0795 -18.7465 2.58941 -0.81016 4.76849
lowerback 12.4836 -0.381968 -8.51298
upperback -4.81044 -1.84575 1.47164
thorax -12.0754 -0.133506 6.8728
lowerneck -9.17825 -3.60616 -3.8369
upperneck 17.6374 -4.84342 2.72998
head 7.06493 -2.35335 1.08751
rclavicle 1.36664e-014 -1.59028e-015
rhumerus -42.9019 -1.88202 -83.3202
rradius 23.1026
rwrist 10.5085
rhand -7.08223 17.691
rfingers 7.12502
rthumb 18.7917 -11.4213
lclavicle 1.36664e-014 -1.59028e-015
lhumerus -29.5183 -1.29136 90.4276
lradius 26.4861
lwrist 1.71816
lhand -7.03467 17.8886
lfingers 7.12502
lthumb 18.8375 46.9965
rfemur -32.837 17.7971 10.3457
rtibia 28.2452
rfoot -6.588 -13.3265
rtoes 36.4596
lfemur 20.106 -11.8534 -31.1192
ltibia 4.33324
lfoot -12.119 7.44217
ltoes 11.1823
90
root -1.78626 16.0759 -18.6189 2.48455 -0.923778 4.72213
lowerback 12.3942 -0.306237 -8.5891
upperback -4.70774 -1.74437 1.46836
thorax -11.921 -0.0920928 6.88402
lowerneck -9.16746 -3.6432 -3.78612
upperneck 17.5346 -4.91692 2.82098
head 7.03321 -2.3778 1.10248
rclavicle 3.60297e-015 1.27222e-014
rhumerus -42.7479 -2.42938 -82.9551
rradius 22.8369
rwrist 11.1907
rhand -6.84588 17.8202
rfingers 7.12502
rthumb 19.019 -11.2699
lclavicle 3.60297e-015 1.27222e-014
lhumerus -29.5698 -0.993556 90.2838
lradius 26.3612
lwrist 1.42683
lhand -6.56779 18.1455
lfingers 7.12502
lthumb 19.2865 47.2091
rfemur -32.6457 17.4353 10.8818
rtibia 28.944
rfoot -6.22392 -12.8106
rtoes 35.7399
lfemur 19.0012 -11.5012 -30.9623
ltibia 7.24291
lfoot -12.6917 7.26606
ltoes 10.197
91
root -1.82696 16.0797 -18.4911 2.48514 -1.06421 4.62668
lowerback 12.1592 -0.232182 -8.63061
upperback -4.61078 -1.62602 1.46055
thorax -11.6896 -0.0499566 6.86148
lowerneck -9.18545 -3.71197 -3.70444
upperneck 17.4659 -5.03277 2.87852
head 7.01752 -2.42314 1.097
rclavicle 8.1129e-015 -1.82882e-014
rhumerus -42.4586 -3.27516 -82.5071
rradius 22.3954
rwrist 12.2745
rhand -6.48104 17.3144
rfingers 7.12502
rthumb 19.3699 -11.7409
lclavicle 8.1129e-015 -1.82882e-014
lhumerus -29.6543 -0.61303 90.0586
lradius 26.3189
lwrist 1.1451
lhand -6.27045 18.3681
lfingers 7.12502
lthumb 19.5724 47.4029
rfemur -32.5278 17.0696 11.4679
rtibia 29.6137
rfoot -5.71858 -12.3421
rtoes 34.9517
lfemur 17.9742 -11.1493 -30.6907
ltibia 9.6845
lfoot -12.8548 7.02918
ltoes 10.311
92
root -1.8685 16.0823 -18.3676 2.39905 -1.15752 4.58294
lowerback 12.1531 -0.141213 -8.73872
upperback -4.512 -1.51879 1.44404
thorax -11.5923 -0.000461799 6.87944
lowerneck -9.50614 -3.77111 -3.61407
upperneck 17.6457 -5.12802 2.90139
head 7.13396 -2.45655 1.0738
rclavicle -3.16813e-015 -2.22639e-014
rhumerus -42.1563 -3.7524 -82.3517
rradius 21.843
rwrist 12.5204
rhand -6.90555 17.034
rfingers 7.12502
rthumb 18.9617 -12.0618
lclavicle -3.16813e-015 -2.22639e-014
lhumerus -29.8793 -0.284767 89.922
lradius 26.5027
lwrist 0.996837
lhand -6.14423 18.6627
lfingers 7.12502
lthumb 19.6937 47.6851
rfemur -32.2807 16.7249 12.0041
rtibia 30.2563
rfoot -5.50405 -11.7987
rtoes 35.5144
lfemur 17.2304 -10.8352 -30.4565
ltibia 11.7742
lfoot -12.7195 6.69196
ltoes 10.9095
93
root -1.91032 16.0911 -18.2461 2.27308 -1.01287 4.54877
lowerback 12.3158 -0.150619 -8.82845
upperback -4.50522 -1.56241 1.44292
thorax -11.6738 -0.00978427 6.94491
lowerneck -9.7281 -3.74396 -3.63942
upperneck 17.9011 -5.11319 3.03809
head 7.25994 -2.43555 1.11819
rclavicle -2.75689e-014 3.57812e-015
rhumerus -41.9565 -4.37241 -82.0348
rradius 21.3083
rwrist 12.736
rhand -6.88512 17.2898
rfingers 7.12502
rthumb 18.9813 -11.804
lclavicle -2.75689e-014 3.57812e-015
lhumerus -30.3032 -0.287033 89.8963
lradius 26.6241
lwrist 1.26989
lhand -5.85343 19.1444
lfingers 7.12502
lthumb 19.9733 48.1379
rfemur -31.8889 16.4655 12.4812
rtibia 30.8484
rfoot -5.58863 -11.4561
rtoes 35.3667
lfemur 16.5677 -10.2724 -30.0607
ltibia 13.714
lfoot -12.2888 6.02141
ltoes 9.56814
94
root -1.9434 16.0995 -18.1157 2.08796 -0.95926 4.60585
lowerback 12.3874 -0.194693 -8.88025
upperback -4.54748 -1.64448 1.39922
thorax -11.7506 -0.0409769 6.94695
lowerneck -9.63174 -3.68914 -3.64858
upperneck 18.11 -5.05222 3.06614
head 7.30953 -2.40503 1.13544
rclavicle 7.65321e-015 -7.95139e-016
rhumerus -41.9302 -4.87815 -81.7269
rradius 20.8366
rwrist 13.0286
rhand -6.60684 17.6504
rfingers 7.12502
rthumb 19.2489 -11.417
lclavicle 7.65321e-015 -7.95139e-016
lhumerus -30.8393 0.0551012 89.703
lradius 26.5134
lwrist 1.25294
lhand -5.82005 19.0137
lfingers 7.12502
lthumb 20.0053 48.0039
rfemur -31.3964 16.4455 12.7958
rtibia 31.3868
rfoot -5.99124 -11.1223
rtoes 35.2642
lfemur 15.943 -9.63035 -29.8458
ltibia 15.6492
lfoot -11.6134 5.60364
ltoes 7.11373
